<svg xmlns="http://www.w3.org/2000/svg" version="1.1" xmlns:xlink="http://www.w3.org/1999/xlink" xmlns:svgjs="http://svgjs.dev/svgjs" viewBox="0 0 5.06225823125129 4.855223089388584"><g transform="matrix(1,0,0,1,0.4131203265631451,3.071102762825439)"><g><path d=" M 0.0915 1.371 L 0.0915 0.30600000000000005 L 0.384 0.30600000000000005 L 0.384 1.371 L 0.0915 1.371 M 0.8640249023437501 0.8475 L 0.8640249023437501 1.371 L 0.57152490234375 1.371 L 0.57152490234375 0.30600000000000005 L 0.7995249023437501 0.30600000000000005 L 1.22702490234375 0.8475 L 1.22702490234375 0.30600000000000005 L 1.51952490234375 0.30600000000000005 L 1.51952490234375 1.371 L 1.28702490234375 1.371 L 0.8640249023437501 0.8475 M 1.7070673828124998 1.371 L 1.7070673828124998 0.30600000000000005 L 2.1165673828125 0.30600000000000005 Q 2.2935673828125 0.30600000000000005 2.4128173828125 0.37725 Q 2.5320673828125 0.4485 2.5928173828125 0.56925 Q 2.6535673828124997 0.69 2.6535673828124997 0.837 Q 2.6535673828124997 0.999 2.5868173828125 1.119 Q 2.5200673828125 1.2389999999999999 2.3993173828125 1.305 Q 2.2785673828124997 1.371 2.1165673828125 1.371 L 1.7070673828124998 1.371 M 2.3565673828125 0.837 Q 2.3565673828125 0.7545 2.3280673828125 0.69225 Q 2.2995673828125 0.63 2.2455673828125 0.5955 Q 2.1915673828125 0.5609999999999999 2.1165673828125 0.5609999999999999 L 1.9995673828124998 0.5609999999999999 L 1.9995673828124998 1.116 L 2.1165673828125 1.116 Q 2.1930673828125 1.116 2.2463173828125 1.08 Q 2.2995673828125 1.044 2.3280673828125 0.9802500000000001 Q 2.3565673828125 0.9165 2.3565673828125 0.837 M 3.544572509765625 1.116 L 3.544572509765625 1.371 L 2.7855725097656245 1.371 L 2.7855725097656245 0.30600000000000005 L 3.5310725097656244 0.30600000000000005 L 3.5310725097656244 0.5609999999999999 L 3.0780725097656245 0.5609999999999999 L 3.0780725097656245 0.711 L 3.4650725097656245 0.711 L 3.4650725097656245 0.948 L 3.0780725097656245 0.948 L 3.0780725097656245 1.116 L 3.544572509765625 1.116 M 3.2580725097656247 0.2609999999999999 L 3.0780725097656245 0.21300000000000008 L 3.1530725097656247 0 L 3.4065725097656245 0 L 3.2580725097656247 0.2609999999999999 M 4.170049804687499 0.726 L 4.170049804687499 0.9510000000000001 L 4.0425498046875 0.9510000000000001 L 4.0425498046875 1.0935 L 3.7875498046875 1.0935 L 3.7875498046875 0.9510000000000001 L 3.6600498046874996 0.9510000000000001 L 3.6600498046874996 0.726 L 3.7875498046875 0.726 L 3.7875498046875 0.5835 L 4.0425498046875 0.5835 L 4.0425498046875 0.726 L 4.170049804687499 0.726" fill="#a4cb6a" fill-rule="nonzero"></path></g><g></g><g clip-path="url(#SvgjsClipPath1003)"><g clip-path="url(#SvgjsClipPath100104ea4545-7590-4226-82fb-51330145e55c)"><path d=" M 2.899409335737543 -1.76250201807004 L 2.8584249040278777 -1.6857297452741873 C 2.8428552521397856 -1.6628234333939724 2.8314075060808133 -1.6373729370831556 2.8245980405354527 -1.6105262545533447 C 2.822407079612177 -1.6002641255937482 2.827187930965977 -1.589776748010806 2.8363714428143623 -1.5846998679963415 C 2.845554954662746 -1.5796229879818797 2.85697877745437 -1.5811520076220225 2.8645039345685452 -1.5884652566235002 C 2.883297008393087 -1.6087394175673408 2.898247449225302 -1.6322614444766907 2.908625930428233 -1.657883863442741 C 2.9223527735845787 -1.6833765721616714 2.936177665620615 -1.7087712320009123 2.949806459897273 -1.7343619895995295 C 2.954158618839846 -1.7477256544280424 2.9484489472171687 -1.7623011689619865 2.9361777761930186 -1.7691529706816969 C 2.9239066051688685 -1.7760047724014085 2.9085026435219214 -1.7732183877281273 2.8994093357375443 -1.76250201807004 Z" fill="#a4cb6a" transform="matrix(1,0,0,1,0,0)" fill-rule="evenodd"></path></g><g clip-path="url(#SvgjsClipPath100104ea4545-7590-4226-82fb-51330145e55c)"><path d=" M 2.9793191726834185 -1.72896930121668 C 2.94890181408925 -1.681320153283513 2.924000882677778 -1.6303669924428645 2.9050961707594554 -1.5770915865796704 C 2.901802468154793 -1.562395055008417 2.9086219501551027 -1.5472911524684514 2.921823993112517 -1.5400425264729007 C 2.935026036069932 -1.5327939004773499 2.9514302185178463 -1.5351467721068448 2.962062569858296 -1.5458139939591384 C 2.995130919514585 -1.59149301885327 3.022801385118644 -1.6408458112505244 3.0445216776760637 -1.6928873134914242 C 3.0667787733652845 -1.735734673915165 3.001870415011703 -1.7715225150013538 2.9793191726834185 -1.72896930121668 Z" fill="#a4cb6a" transform="matrix(1,0,0,1,0,0)" fill-rule="evenodd"></path></g><g clip-path="url(#SvgjsClipPath100104ea4545-7590-4226-82fb-51330145e55c)"><path d=" M 1.5086840262402343 -0.9984070986599662 C 1.3714155946767654 -0.7635800318067463 1.216204218130358 -0.5427739547489399 1.063149916937093 -0.31784982474423007 C 1.045893314111971 -0.2923571160253 1.088348479016958 -0.260589279006326 1.1073699616764665 -0.2855917433268149 C 1.2704511476574674 -0.5051677549445404 1.418076170173145 -0.7358113764515022 1.5491782135514578 -0.9758558563316853 C 1.5554055670006603 -0.9870380174005673 1.5513889018617462 -1.0011512174291537 1.5402067408392595 -1.007378570961672 C 1.5290245798167728 -1.0136059244941902 1.5149113797582585 -1.0095892594604285 1.508684026142426 -0.9984070984843396 Z" fill="#a4cb6a" transform="matrix(1,0,0,1,0,0)" fill-rule="evenodd"></path></g><g clip-path="url(#SvgjsClipPath100104ea4545-7590-4226-82fb-51330145e55c)"><path d=" M 0.9098014691047615 -1.9232041318789874 C 0.8722532370102715 -1.8700599839910916 0.8380654947455585 -1.8146195168894081 0.8074384387102916 -1.7572073785668811 C 0.7939076933133195 -1.7277927146604233 0.8327350496698434 -1.6931814601304898 0.8557765363965685 -1.7218117329994431 C 0.895585479345095 -1.7765671268977292 0.9319029082607736 -1.8337777205097137 0.964512743970772 -1.8931031258147106 C 0.9858873997427977 -1.9273221848258895 0.9309800271174109 -1.957325142010478 0.9098014691047615 -1.9232041318789874 Z" fill="#a4cb6a" transform="matrix(1,0,0,1,0,0)" fill-rule="evenodd"></path></g><g clip-path="url(#SvgjsClipPath100104ea4545-7590-4226-82fb-51330145e55c)"><path d=" M 1.164042214136242 -2.1348916631257917 C 1.1097885007087775 -2.059590123525261 1.056842105677153 -1.9834061440075357 1.0052030290413716 -1.9063397245726175 C 0.9517243700176754 -1.8405888452965282 0.9087290336186099 -1.7669676000470491 0.8777394854467236 -1.6880829183867005 C 0.8742381039634788 -1.674968628679547 0.8801650794766906 -1.6611613831623715 0.8920840041211462 -1.6546665003971304 C 0.9040029287656017 -1.6481716176318917 0.9188183888102708 -1.6506758562727992 0.9279405118470774 -1.6607272809536986 C 0.9834310838720897 -1.724759127141545 1.0306977505881467 -1.795477965775255 1.068640654199632 -1.8712382256442461 C 1.1183514362015454 -1.9496773293947984 1.1698270980378451 -2.0264496021906524 1.2222832486710278 -2.102633581708378 C 1.2472857129915167 -2.137735080636749 1.1888485806973548 -2.1689146243775945 1.164042214136242 -2.1348916631257917 Z" fill="#a4cb6a" transform="matrix(1,0,0,1,0,0)" fill-rule="evenodd"></path></g><g clip-path="url(#SvgjsClipPath100104ea4545-7590-4226-82fb-51330145e55c)"><path d=" M 1.2699350041994895 -2.0725325756441024 C 1.2214988576335222 -2.012330563515553 1.1747295420222557 -1.9511480625901216 1.1304114484031929 -1.8878084863115494 C 1.0811501349472774 -1.8284934064061873 1.0409997000739406 -1.7621708362080089 1.01128205958204 -1.6910243847773474 C 1.0083289658782901 -1.6776559889677987 1.0145290241664828 -1.6639388459731803 1.0265149575432688 -1.6573227920109472 C 1.038500890920052 -1.6507067380487144 1.053411965897736 -1.6527708547415652 1.063149916937093 -1.6623941119083967 C 1.1060552118103932 -1.7155559425772977 1.144211891326539 -1.7723808513666042 1.177180764014457 -1.8322147715283434 C 1.221694955392897 -1.8988880097163137 1.2687257346833334 -1.9636329532704169 1.3182731018857676 -2.026449602190651 C 1.3444521527625144 -2.0592959768861956 1.297094543873118 -2.1060652924974637 1.2699350041994895 -2.0725325756441024 Z" fill="#a4cb6a" transform="matrix(1,0,0,1,0,0)" fill-rule="evenodd"></path></g><g clip-path="url(#SvgjsClipPath100104ea4545-7590-4226-82fb-51330145e55c)"><path d=" M 1.2880740469418028 -1.9075163111288753 C 1.2470896152321393 -1.8549621116160044 1.20688957455998 -1.801427423306253 1.1681602670831457 -1.7472063928386814 C 1.1243766390806673 -1.6972746249321427 1.0895474573037742 -1.6401547668180383 1.0652089434105436 -1.5783662220156163 C 1.0564825931182964 -1.5463042383575774 1.0946236073170013 -1.5323812974418556 1.1164885074874684 -1.5500300957857285 C 1.1574252829308354 -1.5921530906166435 1.1924842679712677 -1.6396129960476709 1.2207144665960166 -1.6911224336570367 C 1.2599340184712924 -1.7472063928386814 1.3000686932236578 -1.8025059609828218 1.3411184908531153 -1.857021138089455 C 1.369160470443939 -1.8940836146115938 1.3170965153295084 -1.9450690320494533 1.2880740469418028 -1.9075163111288753 Z" fill="#a4cb6a" transform="matrix(1,0,0,1,0,0)" fill-rule="evenodd"></path></g><g clip-path="url(#SvgjsClipPath100104ea4545-7590-4226-82fb-51330145e55c)"><path d=" M 1.4114195375895486 -1.8926128814162704 C 1.3113101909081502 -1.7765396656630537 1.2184142345544373 -1.6544356750944975 1.1332548659141466 -1.5269886090590008 C 1.1136450899765111 -1.4955149186790953 1.1626695298206067 -1.4583543932772696 1.1863973587051495 -1.4877690571837274 C 1.2806223320855017 -1.6048394195314273 1.3628853421438945 -1.7322049142463871 1.4542668980132891 -1.8514323519472293 C 1.4770142381009488 -1.8814353091318181 1.435637610872533 -1.9220275453227296 1.4114195375895486 -1.8926128814162704 Z" fill="#a4cb6a" transform="matrix(1,0,0,1,0,0)" fill-rule="evenodd"></path></g><g clip-path="url(#SvgjsClipPath100104ea4545-7590-4226-82fb-51330145e55c)"><path d=" M 1.4788771668150258 -1.8337835536033564 C 1.4422956858804088 -1.783797808357567 1.412338001901264 -1.7292873470797863 1.3897507351784588 -1.6716107065990893 C 1.3873604051434865 -1.6590935932236541 1.3933019310279158 -1.646460880925821 1.4044678170000553 -1.640319643641142 C 1.4156337029721964 -1.6341784063564657 1.4294841427664449 -1.6359255375310282 1.4387751750225546 -1.6446472646848342 C 1.4765228774514008 -1.6937586290452296 1.5078262666513216 -1.7475016056610924 1.5319216107263383 -1.804564987456276 C 1.539312277688845 -1.8191299687996922 1.5338275245602597 -1.8369318155441832 1.5195214854790298 -1.8448120367016823 C 1.5052154463977983 -1.8526922578591816 1.4872378816953764 -1.8478142017129153 1.4788771668150258 -1.8337835536033564 Z" fill="#a4cb6a" transform="matrix(1,0,0,1,0,0)" fill-rule="evenodd"></path></g><g clip-path="url(#SvgjsClipPath100104ea4545-7590-4226-82fb-51330145e55c)"><path d=" M 3.2669945856885723 -2.09488772021301 C 3.2306204302526327 -2.0473177202570043 3.198686142111095 -1.9965116791027382 3.171593025751962 -1.943108054455691 C 3.1612978933847007 -1.9168309546992535 3.1917910949677295 -1.8882006818303014 3.2142442884163254 -1.9119285107148443 C 3.25324319509183 -1.9603546054966712 3.287581999108628 -2.012355241789795 3.316803416570175 -2.067237936140941 C 3.3366092902671864 -2.098515528761473 3.2868004593855864 -2.1255770195554136 3.2669945856885723 -2.09488772021301 Z" fill="#a4cb6a" transform="matrix(1,0,0,1,0,0)" fill-rule="evenodd"></path></g><g clip-path="url(#SvgjsClipPath100104ea4545-7590-4226-82fb-51330145e55c)"><path d=" M 3.3708283492783666 -2.0808667304175974 L 3.309057555074806 -1.9871320014356868 C 3.287157892812849 -1.9595023211679852 3.269236890492816 -1.9289409065301368 3.2558170134041173 -1.8963387388444217 C 3.246502369833739 -1.8669240749379639 3.2852316773105747 -1.850942107548789 3.304841453248213 -1.8691791991707918 C 3.3283504590416775 -1.8957989903042516 3.3481405914738827 -1.9254841889525594 3.363670781061127 -1.957423190890165 C 3.3825942148409487 -1.9893871256685145 3.4019098441395226 -2.021449109326555 3.4209313267990322 -2.0534130441049046 C 3.4399528094585405 -2.0853769788832546 3.3906342229753808 -2.1106735898428086 3.3708283492783666 -2.0808667304175974 Z" fill="#a4cb6a" transform="matrix(1,0,0,1,0,0)" fill-rule="evenodd"></path></g><g clip-path="url(#SvgjsClipPath100104ea4545-7590-4226-82fb-51330145e55c)"><path d=" M 3.9231376885619476 -0.9945831923521258 C 3.898037175361771 -1.2572888239966875 3.8656810450646675 -1.5190139668443663 3.826069297670639 -1.7797586208951621 C 3.8074400105298833 -1.9014045976283127 3.787405356113596 -2.0229852084416695 3.765965334421778 -2.144500453335234 C 3.754587739010311 -2.2524965034774302 3.7273305062915005 -2.3582215273564526 3.685075008679019 -2.458256868337449 C 3.5882027155470873 -2.6465107173387747 3.3547483330095025 -2.63925510024185 3.170024243676951 -2.6460204729403345 C 3.0459696928490767 -2.6507127485781714 2.921739125198017 -2.6468141627262534 2.798222891899335 -2.6343526562574406 C 2.7149793930440524 -2.6256263059651905 2.608498309702677 -2.624547768288621 2.555846061310119 -2.5476774466130787 C 2.534765552177158 -2.517086196150363 2.5354518943349755 -2.464041752239052 2.505448937150389 -2.4408041677529493 C 2.472602562454846 -2.4152134101543323 2.3987717560496375 -2.4257046402809683 2.36063074185093 -2.425410493641904 C 2.2151262043936546 -2.425410493641904 2.0694255691770023 -2.426390982438786 1.9237249339603493 -2.4259007380403443 C 1.876269276191265 -2.4259007380403443 1.7931238262156786 -2.4090363307339757 1.7554730564154126 -2.44727539381237 C 1.7300783965761715 -2.4731602980500527 1.7241954637948793 -2.538558900802077 1.7002715371509616 -2.5702286889413624 C 1.6537277738673153 -2.6266901707441566 1.5840039134122 -2.6588815183248835 1.5108411015933754 -2.6576882896232297 C 1.4107877747677589 -2.655262937445579 1.311214764860456 -2.6430133554220214 1.2135568983787794 -2.6211160574995325 C 1.0969547215690474 -2.608890805897525 0.9812509685183773 -2.589241145034122 0.8671502064404022 -2.5622867296866207 C 0.6588943859826798 -2.5024769130768223 0.6181060520323909 -2.326969418434959 0.5750625938492756 -2.1370487384789327 C 0.5170830229936584 -1.8815333580115048 0.4590380862182487 -1.6257891968248064 0.40092778352304914 -1.3698162549188337 C 0.36798335994781634 -1.2241156197021805 0.3314111278241203 -1.0792974244027236 0.3028789038348577 -0.9328123981485661 C 0.273045546486719 -0.8239969228238315 0.2770468411151225 -0.7086775596872585 0.31435062275837555 -0.6021915758399863 C 0.4136478424787836 -0.4173672797339787 0.5963876815261615 -0.2921539420187136 0.8045950211993329 -0.2662761140282437 C 0.9946381966311636 -0.2314938075836248 1.1892844605458266 -0.29616635993672835 1.3207243238779716 -0.43776360460289254 C 1.3335687271171262 -0.4526670343154926 1.3455306904390842 -0.4682568061859178 1.3566102138438498 -0.48404267581571636 C 1.4180137550804852 -0.5528038155882364 1.4639238615011039 -0.6339573685983173 1.4912313256557388 -0.7220073068189568 C 1.5679055495719032 -0.9426172861173872 1.5814362949688743 -1.1894063162925652 1.8693078057334027 -1.2089180433505153 C 1.9860840214420399 -1.2166639048458807 2.1056056057819452 -1.2072512123958143 2.2222837726108926 -1.204407794884857 C 2.3345421475235844 -1.208897260720946 2.4468534558644692 -1.196939409656416 2.5556499635507417 -1.1689141004377321 C 2.6831135071453924 -1.126458935532744 2.7135086598487317 -1.0371364061368034 2.736648195455145 -0.9144772576468754 C 2.7554891041733036 -0.8000716193525879 2.791590253543986 -0.6891895177140612 2.8437175720746493 -0.5856213151726806 C 2.9291131999344233 -0.4127039180577152 3.091492740416062 -0.2905645236152212 3.2813097221230474 -0.25647122605941997 C 3.4786524175092732 -0.23190375776911765 3.678040566571842 -0.28213557918207366 3.8401883363457414 -0.397269417291668 C 4.009518751567247 -0.5395383417192301 3.9408845357855116 -0.8046625123960993 3.922549395283821 -0.9953675833896327 Z M 3.483780658679163 -2.089789178469225 L 3.483780658679163 -2.089789178469225 C 3.5123017960198917 -2.0419190524409006 3.5189718172679227 -1.9841312050956639 3.5021059275087576 -1.931022392231807 C 3.4852400377495933 -1.8779135793679513 3.446451017034081 -1.8345622661678052 3.39553666695979 -1.811918653432889 C 3.3385991811905056 -1.7863645026850095 3.2725058605252806 -1.791998930470267 3.2207155144757444 -1.8268220831454953 C 3.174484505748763 -1.8487648612583016 3.1374241879929774 -1.8862415870787586 3.1159993109687565 -1.9327148732087416 C 3.0854406973369657 -2.0391654564987496 3.143753129933215 -2.1508734449782523 3.248561396307192 -2.1866614716011568 C 3.3403230032378595 -2.2212955386757094 3.443222008366016 -2.1788496990603456 3.483878707558851 -2.0895930807098497 Z M 3.338864414500017 -1.9087909465648227 C 3.2899328601168647 -1.9064061914604271 3.2434161069521794 -1.9301872281906873 3.2166955104085315 -1.9712480829262 C 3.203644239865283 -2.0084419706172447 3.214331398244974 -2.0498353485443808 3.243757001202471 -2.0760623353128764 C 3.2538284445334043 -2.074872128731412 3.2640306370655474 -2.076572494153437 3.273171665108929 -2.080964779297288 C 3.3893595875394347 -2.134303369847662 3.4579938033211697 -1.9338914597649994 3.3387663656203275 -1.9087909465648227 Z M 3.0961934372717437 -1.7813274029701733 C 3.130134764844252 -1.7407897269367583 3.1454545735310533 -1.6878424149281663 3.1384034459184744 -1.635443956029403 C 3.1313523183058956 -1.583045497130637 3.102580959430365 -1.5360314216256286 3.059130960749607 -1.5059080999260446 C 3.0093192385730516 -1.4790210403212887 2.9516779470476506 -1.4703852511577364 2.896173722707832 -1.4814939288836841 C 2.8430501886566697 -1.4899091435856038 2.797941128167233 -1.524952851775511 2.776652138367927 -1.5743462179484022 C 2.7487435173152712 -1.6247781580695517 2.747423686516144 -1.6857103466292638 2.773122378699153 -1.7373034559901763 C 2.789802241065582 -1.774181591508319 2.8209428380909958 -1.8025557118048237 2.859209295065385 -1.8157425597407297 C 2.9367721066532697 -1.8601233509265067 3.034615618688034 -1.8457929399789244 3.0961934372717437 -1.7810332563311106 Z M 3.008439689950812 -1.6041530773736121 C 2.9696620938315323 -1.574494303307421 2.915485273269633 -1.5757580214695108 2.8781327288452068 -1.6071925926439457 C 2.8565194535084726 -1.6358312571458917 2.8517058445867582 -1.6737804065519621 2.865484423365428 -1.7069083032868355 C 2.8704190554505074 -1.7061760953051315 2.875456669608514 -1.7066126885321613 2.8801917553186582 -1.708182938722784 C 2.8998015312562977 -1.7137717248650097 2.9209800892689457 -1.7375976026292417 2.938334740973756 -1.7399507757417576 C 2.9579043504745663 -1.7388106469412599 2.9769539710324127 -1.733209790192739 2.9940265046366488 -1.7235766128338281 C 3.0162266303897067 -1.7132486347840072 3.0315135754610085 -1.6921820134119918 3.0344473659394606 -1.6678734637333785 C 3.037381156417916 -1.6435649140547628 3.0275451979188563 -1.6194662181139108 3.0084396899508143 -1.6041530773736121 Z M 2.323862411967859 -1.561599863588937 C 2.3502609757856554 -1.5549663778830007 2.3662837375849533 -1.52818861114411 2.3596502523188145 -1.501790047215802 C 2.3530167670526767 -1.475391483287491 2.3262390005807267 -1.459368721042076 2.2998404365419027 -1.4660022058684146 C 2.19875696280198 -1.4778777624719148 2.0969290381348933 -1.482203892518925 1.9952025672530445 -1.4789446580117922 C 1.9668274951285734 -1.4782948474541349 1.9432981787475934 -1.5007706127585265 1.9426483681899376 -1.5291456848829936 C 1.9419985576322791 -1.5575207570074632 1.964474322936672 -1.5810500733884432 1.992849395061139 -1.5816998839460978 C 2.1034716663149666 -1.5923431601336837 2.215076097296649 -1.5857276040588972 2.323666314208483 -1.5620901079873786 Z M 1.5884958143064245 -1.762305920310665 C 1.590260694140812 -1.7105361118353 1.5942806982080273 -1.6721989998772178 1.5484918713936413 -1.643960922527019 C 1.4864734883038517 -1.6187602709936206 1.4181653621286774 -1.6134162049538368 1.352982405295388 -1.6286652972956595 C 1.3489086473012508 -1.577534367441552 1.3504539819354084 -1.5261108915304338 1.357590702640733 -1.4753168494633275 C 1.3578333686993607 -1.4590414762962316 1.3505348576087077 -1.4435688887041422 1.3378207728522205 -1.4334052915383244 C 1.3251066880957318 -1.423241694372504 1.3084066322096204 -1.4195299071566212 1.2925842954074624 -1.4233509432285865 C 1.2537326032131253 -1.4332430666427167 1.2141079804899786 -1.439803434643239 1.1741412487441258 -1.4429607191662257 C 1.1396280430938828 -1.4451177945193654 1.1010948333764246 -1.4331558311974046 1.0677582142824393 -1.4380582751818152 C 1.0453284765235067 -1.4399345818697695 1.0241070817089468 -1.4490147248698415 1.007262055514826 -1.4639431794194977 C 0.970983970030194 -1.5024763891369561 0.9756903162552271 -1.5856218391125427 0.9798083692021319 -1.6511184907442562 C 0.9188219660360767 -1.6426862870910706 0.8451872573902444 -1.636313109911338 0.8080267319884213 -1.6772975416210016 C 0.7563549723927443 -1.7346561362385924 0.7940057421930088 -1.868002612614534 0.7982218440196029 -1.9358524373587631 C 0.798179779063315 -1.9567232991667272 0.8116705252900538 -1.975213557230433 0.8315584631135893 -1.9815432152934611 C 0.8907552589802632 -1.991679310701325 0.9505106317052217 -1.9982278446985797 1.0104976685445382 -2.001152991231098 C 1.006771811116387 -2.069787207012833 1.003438149206988 -2.1664634023853893 1.0445206297963394 -2.2070556385762994 C 1.0783349873359391 -2.2312160257089553 1.1207925971049395 -2.2399426317436912 1.1613948943846633 -2.231077614099908 C 1.2204329663716464 -2.249701746318669 1.28445301412247 -2.2440933784991755 1.3393536110187303 -2.215487842229485 C 1.3956336679597512 -2.1656790113478834 1.3666111995720482 -2.054197435142409 1.3728863278720915 -1.9785037000231251 C 1.4354415131131582 -1.9705617407683809 1.519273305246561 -1.9836022417669117 1.5610421279937303 -1.942225614538493 C 1.6002616798690077 -1.9030060626632173 1.587025081111101 -1.8100557247188123 1.5885938631861125 -1.7621098225512863 Z M 1.320822372757661 -1.7381858959073702 C 1.2927298421677176 -1.7448417322693492 1.2644407422841266 -1.7279378000808452 1.2569925520806482 -1.7000448817086613 C 1.2482893996900248 -1.6470468172152342 1.2450041677155064 -1.593300422112099 1.2471876641118298 -1.5396369145387818 C 1.2289947718920056 -1.5430990677766163 1.2106351627413974 -1.545619014130621 1.1921822426067537 -1.5471866782747736 C 1.1666630105380857 -1.544480838295019 1.140929201879572 -1.544480838295019 1.115409969810901 -1.5471866782747736 C 1.0809948130403448 -1.5609135214311194 1.0907016521294766 -1.5463042383575798 1.0875640879794535 -1.601211610982968 C 1.085799208145066 -1.6379799408660387 1.0860933547841303 -1.675042417388175 1.0850148171075604 -1.711810747271246 C 1.0847062951917144 -1.7255161197991642 1.078964146446178 -1.73853716306136 1.0690523711532138 -1.7480075977104794 C 1.0591405958602509 -1.7574780323596015 1.045871681675461 -1.7626215482979943 1.0321664709556253 -1.7623059203106677 C 1.0059874200788785 -1.7588742095215792 0.979220075924001 -1.7555405476121804 0.9526488295285007 -1.7535795700184167 C 0.9392161330112191 -1.7525010323418466 0.9257834364939362 -1.75132444578559 0.9124487888563427 -1.750540054748083 C 0.8856814447014677 -1.7393624824636293 0.875680458973272 -1.7452454152449204 0.8830341249498864 -1.76799275533258 C 0.8752310626627283 -1.8109245923945494 0.8762653077023672 -1.8549967761804647 0.88607364022022 -1.897515325400681 C 0.9433275694552555 -1.9080298290625102 1.0015320658657965 -1.912466648382344 1.0597182061480086 -1.9107519241585877 C 1.0851869760357407 -1.911657232510915 1.1052205833080866 -1.9328256410666622 1.1047226419248877 -1.9583056308073585 C 1.098412155569175 -2.0038659986055563 1.098709365095521 -2.0500985915925742 1.1056050818420815 -2.095574062370829 C 1.1092901950839908 -2.1098245222845304 1.1167802393063262 -2.1228050061630572 1.1272738842531727 -2.133126783291404 C 1.1514919575361557 -2.131067756817954 1.1762983240972682 -2.128420437066372 1.2005163973802513 -2.1272438505101143 C 1.2131647028600285 -2.1272438505101143 1.2261071549788685 -2.127930192667932 1.2387554604586457 -2.128028241547619 C 1.2759159858604714 -2.1391077649523846 1.2864072159871074 -2.1359702008023627 1.2699350041994908 -2.1189096957366167 C 1.2864072159871074 -2.081455023695727 1.2585613341556612 -1.9914461521419677 1.2710135418760609 -1.9435982988541312 C 1.2943491752418501 -1.851824547465983 1.4012224541019793 -1.874964083072396 1.480249851130661 -1.862021630953556 C 1.486711256728715 -1.8202548545736152 1.488519878031264 -1.777900232070236 1.4856425395135093 -1.735734673915165 C 1.430719685922514 -1.7282954723479786 1.3749886134597944 -1.7291879628322564 1.320332128359218 -1.7383819936667462 Z M 3.802439517665786 -0.5714042276178906 C 3.76321996579051 -0.46737436626871887 3.640266670661518 -0.4382538490013266 3.542511937612392 -0.41285918916208564 C 3.334257291814719 -0.33955208340022036 3.103057041786832 -0.4211617727852843 2.9869669852990994 -0.6089569485384683 C 2.93624628250994 -0.6930259700766357 2.900267278046942 -0.7851454856510205 2.8805839508374107 -0.8813367363122637 C 2.8712793372520133 -0.9741391136360695 2.8458983566565834 -1.0646148444644823 2.8055765578759466 -1.1487160312219644 C 2.7196857392690896 -1.2830429963947851 2.5506494706866483 -1.320399619555987 2.4024976134777902 -1.3323615828779451 C 2.2897414018363698 -1.3415781775686353 2.1760047013980675 -1.3404996398920652 2.062856294237895 -1.3431469596436467 C 1.9612121728229204 -1.3509647037633414 1.8589965603109675 -1.3465205466976038 1.7584145228060593 -1.3299103608857425 C 1.5905933314608962 -1.2868015647538624 1.4622200901845026 -1.1514954065895462 1.427989798256853 -0.9816407402332845 C 1.4065170936051394 -0.906633347271818 1.3961239123581914 -0.8149576447633591 1.3753375498642941 -0.7292629239158781 C 1.3508888120527347 -0.6675356731416782 1.318274864798456 -0.609364790475805 1.278367207852674 -0.5563047001459069 C 1.256326253195974 -0.5278413240710091 1.2313131280976566 -0.501809267464087 1.2037520104099584 -0.47864998743285936 C 1.195990645059793 -0.47488373675257023 1.1880002539682923 -0.4716089863052333 1.1798280837660409 -0.4688450994640383 C 1.167018186282159 -0.4650180206353549 1.1570401899416605 -0.4549291576688521 1.1533548862502285 -0.44207775530916704 C 1.0382553803175472 -0.3722393597189959 0.8994204944422468 -0.353044452165062 0.7696896200303365 -0.38903331139785324 C 0.5530015959194337 -0.4441367817826176 0.37514092816505334 -0.6067018243056395 0.4084775472590397 -0.8435879176323098 C 0.4386766022030031 -1.0592954529463294 0.5040752049550246 -1.2754932326587933 0.5526094004006801 -1.4883573504618557 C 0.6011435958463356 -1.7012214682649178 0.6500699868107432 -1.9147719282258004 0.6985061333767093 -2.127930192667927 C 0.7198807891487349 -2.222547361567033 0.7332154367863284 -2.347951878688229 0.8190082065134964 -2.4086441352152197 C 0.9079385403906858 -2.471591515975039 1.0526586868104557 -2.4692383428625213 1.1563944015205636 -2.4844359192141905 C 1.2466974197133882 -2.4971822735736557 1.3367062912671477 -2.5138505831206484 1.4272054072193487 -2.523655471089468 C 1.4686151404554733 -2.53174080837081 1.511297759140525 -2.5306026052058757 1.5522177288217913 -2.5203218091800688 C 1.606242661529987 -2.499633495565861 1.6094782745596965 -2.450412957962389 1.630656832572346 -2.4049182777870675 C 1.7068408120900704 -2.244804457256251 1.9346083596057388 -2.291279626228453 2.0797207015442623 -2.2905932840706367 C 2.188849104637219 -2.2905932840706367 2.2984677521286168 -2.287553768800302 2.407596155221574 -2.2905932840706367 C 2.4746836953934177 -2.28572765111315 2.5414446925204657 -2.3036964495117345 2.5970265907791603 -2.341578701508495 C 2.663601780087442 -2.396289976374507 2.656444211870204 -2.4821807949813612 2.758022851227169 -2.4945349538220745 C 2.873928536074682 -2.5084688546983527 2.990645519720531 -2.514529096622148 3.1073710095561973 -2.5126739965643905 C 3.22017731569556 -2.515470340844201 3.332965060720378 -2.5063999977128346 3.4438747646460692 -2.4856125057704497 C 3.561533420271899 -2.4584529660968197 3.5882027155470873 -2.356286033461725 3.609871517958177 -2.2512756833156713 C 3.6564447358100676 -2.022429598123433 3.6910559903399998 -1.7904459487811715 3.722529680719909 -1.5596388859951682 C 3.752336540145119 -1.3416435434884237 3.7769468089468554 -1.1232560054629246 3.7963604871251175 -0.904476271918673 C 3.8206646437057996 -0.7949347183080904 3.8225989104104072 -0.6816133689588328 3.8020473221470326 -0.5713061787382014 Z" fill="#a4cb6a" transform="matrix(1,0,0,1,0,0)" fill-rule="evenodd"></path></g></g></g><defs><clipPath id="SvgjsClipPath1003"><path d=" M 0.2837593722956586 -2.657982436262294 h 3.6684988335336826 v 2.407982436262294 h -3.6684988335336826 Z"></path></clipPath><clipPath id="SvgjsClipPath100104ea4545-7590-4226-82fb-51330145e55c"><path d=" M 0.2837593722956586 -2.657982436262294 L 3.952258205829341 -2.657982436262294 L 3.952258205829341 -0.25 L 0.2837593722956586 -0.25 Z"></path></clipPath></defs></svg>